<?xml version="1.0" standalone="no"?>
<!DOCTYPE svg PUBLIC "-//W3C//DTD SVG 20010904//EN"
 "http://www.w3.org/TR/2001/REC-SVG-20010904/DTD/svg10.dtd">
<svg version="1.0" xmlns="http://www.w3.org/2000/svg"
 width="192.000000pt" height="192.000000pt" viewBox="0 0 192.000000 192.000000"
 preserveAspectRatio="xMidYMid meet">
<metadata>
Created by potrace 1.14, written by Peter Selinger 2001-2017
</metadata>
<g transform="translate(0.000000,192.000000) scale(0.100000,-0.100000)"
fill="#000000" stroke="none">
<path d="M805 1733 c-79 -16 -199 -72 -236 -109 -132 -132 -190 -224 -224
-353 -17 -65 -22 -199 -11 -260 12 -59 46 -151 72 -193 23 -35 29 -39 59 -35
18 2 37 7 43 11 16 10 32 91 32 166 0 113 -40 170 -121 170 l-30 0 6 53 c10
78 42 165 86 233 48 74 75 99 166 153 202 120 423 115 608 -12 22 -15 44 -27
50 -27 11 0 18 -8 74 -77 28 -35 40 -43 68 -43 18 0 33 3 33 8 0 14 -55 89
-115 156 -126 142 -347 205 -560 159z"/>
<path d="M647 1301 c-6 -2 -20 -10 -29 -19 -16 -14 -18 -39 -18 -247 0 -212 2
-233 18 -248 17 -15 56 -17 358 -17 390 1 376 -2 379 82 1 37 6 52 14 50 7 -1
48 -23 91 -47 139 -81 145 -74 146 179 1 257 -7 265 -160 176 -47 -27 -87 -48
-87 -47 -1 1 -2 22 -3 47 -3 61 -20 90 -54 91 -104 3 -644 3 -655 0z m408
-114 c104 -53 123 -189 39 -271 -91 -89 -237 -52 -279 70 -47 138 109 269 240
201z"/>
<path d="M927 1113 c-10 -9 -9 -151 1 -157 13 -8 132 64 132 79 0 7 -26 30
-59 49 -63 39 -64 39 -74 29z"/>
<path d="M43 600 c-41 -16 -56 -78 -30 -115 8 -10 34 -25 58 -34 46 -17 63
-46 33 -58 -10 -4 -22 0 -29 10 -16 22 -75 23 -75 2 0 -9 11 -27 25 -40 53
-54 165 -23 165 46 0 46 -11 60 -66 84 -52 23 -69 47 -40 58 8 3 21 -2 30 -12
11 -12 26 -16 46 -13 34 5 34 3 19 35 -19 42 -82 59 -136 37z"/>
<path d="M229 605 c-1 0 -3 -12 -5 -27 -3 -26 0 -28 32 -28 l34 0 0 -105 0
-105 30 0 c34 0 31 -9 32 128 l0 82 34 0 c30 0 34 3 34 28 l0 27 -95 0 c-52 0
-96 0 -96 0z"/>
<path d="M459 593 c0 -7 -1 -58 -1 -113 0 -150 -2 -140 32 -140 32 0 34 4 31
68 -1 41 12 34 40 -23 21 -42 25 -45 61 -45 29 0 37 3 32 13 -4 6 -18 29 -31
49 -22 36 -22 38 -4 50 21 15 38 47 35 66 -1 6 -2 21 -3 32 -2 34 -47 54 -123
55 -48 0 -68 -3 -69 -12z m126 -63 c9 -28 -2 -40 -35 -40 -25 0 -29 3 -28 30
1 26 5 30 29 30 19 0 30 -6 34 -20z"/>
<path d="M700 473 l0 -133 81 0 80 0 -3 27 c-3 26 -6 28 -48 28 -46 0 -47 1
-41 45 0 6 19 10 41 10 36 0 40 3 40 24 0 22 -5 25 -42 28 -35 2 -43 7 -43 23
0 16 8 21 45 25 39 4 45 8 48 30 3 25 3 25 -78 25 l-80 0 0 -132z"/>
<path d="M982 602 c-7 -2 -12 -9 -12 -16 0 -7 -15 -55 -34 -107 -54 -148 -53
-139 -12 -139 25 0 36 5 36 14 0 21 18 29 62 31 33 1 39 -2 44 -22 5 -18 13
-23 40 -23 19 0 34 4 34 8 0 5 -20 65 -44 133 -42 120 -44 124 -73 125 -16 0
-35 -2 -41 -4z m58 -149 c0 -7 -12 -13 -26 -13 -20 0 -25 4 -20 16 3 9 9 28
13 42 l6 27 13 -30 c7 -16 13 -36 14 -42z"/>
<path d="M1179 595 c0 -5 -1 -65 -2 -133 l-2 -122 33 0 c35 0 34 -2 34 88 0
28 1 52 2 52 2 0 13 -31 26 -70 21 -64 26 -70 51 -70 24 0 30 7 47 53 11 28
22 59 25 67 6 16 10 -35 7 -87 -1 -31 0 -33 35 -33 l36 0 -3 132 -3 132 -37 1
-37 1 -34 -89 -34 -90 -35 89 -34 89 -37 0 c-20 0 -37 -4 -38 -10z"/>
<path d="M1523 596 c-5 -7 -8 -210 -4 -249 1 -4 35 -7 78 -5 70 3 76 5 79 26
4 23 -2 26 -63 24 -30 -1 -33 1 -33 29 0 27 3 29 33 27 42 -2 56 7 50 32 -4
16 -14 20 -44 20 -35 0 -39 3 -39 25 0 23 4 25 45 25 25 0 46 5 46 10 6 46 7
45 -69 45 -40 1 -76 -4 -79 -9z"/>
<path d="M1720 472 l0 -133 33 3 c31 3 32 4 31 51 0 26 3 47 7 47 3 0 17 -21
31 -47 22 -43 28 -48 62 -51 l38 -3 -27 49 -27 49 26 26 c33 33 34 77 2 113
-21 25 -29 28 -100 29 l-76 1 0 -134z m128 45 c3 -27 1 -28 -30 -25 -31 3 -37
13 -29 54 1 3 13 4 29 2 21 -2 28 -9 30 -31z"/>
<path d="M87 283 c-12 -12 -7 -36 11 -49 16 -13 16 -14 0 -8 -19 7 -25 -10 -8
-21 15 -9 50 4 50 19 0 8 -10 21 -22 29 l-23 16 25 -6 c22 -6 24 -5 11 10 -14
18 -33 22 -44 10z"/>
<path d="M150 273 c0 -8 5 -11 11 -7 6 3 10 -1 9 -12 -4 -34 0 -54 10 -54 6 0
10 16 10 35 0 19 5 35 10 35 6 0 10 4 10 8 0 5 -13 8 -30 8 -19 0 -30 -5 -30
-13z"/>
<path d="M225 282 c-9 -10 -5 -82 5 -82 6 0 10 8 10 18 1 16 1 16 11 0 17 -30
26 -20 25 25 -1 36 -4 42 -23 43 -12 1 -25 -1 -28 -4z m30 -22 c3 -5 1 -10 -4
-10 -6 0 -11 5 -11 10 0 6 2 10 4 10 3 0 8 -4 11 -10z"/>
<path d="M299 277 c-1 -7 -2 -26 -3 -44 -1 -32 0 -32 41 -31 24 0 43 4 43 9 0
5 7 9 15 9 8 0 15 -4 15 -10 0 -5 5 -10 10 -10 14 0 13 15 -5 57 -12 29 -18
33 -29 24 -8 -7 -17 -25 -21 -40 -5 -23 -10 -27 -31 -23 -23 4 -25 17 -3 17 5
0 8 5 7 10 -2 6 -6 9 -10 8 -5 -2 -8 2 -8 7 0 6 8 10 17 10 21 0 12 9 -16 15
-11 2 -22 -1 -22 -8z"/>
<path d="M448 284 c-10 -15 -7 -84 3 -84 5 0 9 8 9 18 1 16 1 16 11 0 5 -10
14 -18 19 -18 5 0 11 8 13 18 4 16 5 16 6 0 2 -39 21 -15 21 27 0 51 -13 58
-34 18 -8 -16 -15 -23 -16 -17 0 17 -27 48 -32 38z"/>
<path d="M582 250 c0 -42 18 -68 19 -28 l0 23 16 -22 c23 -34 33 -28 33 22 0
45 -19 66 -21 23 0 -13 -3 -17 -6 -10 -2 7 -13 17 -23 22 -17 9 -19 6 -18 -30z"/>
<path d="M684 282 c-21 -13 -25 -49 -9 -66 26 -25 55 -18 68 17 5 13 1 17 -19
17 -20 0 -25 -4 -20 -16 3 -8 2 -12 -4 -9 -20 12 -10 35 15 35 28 0 34 15 9
24 -20 8 -26 7 -40 -2z"/>
<path d="M760 274 c-12 -14 -11 -18 10 -35 24 -18 24 -18 3 -12 -28 7 -31 -13
-3 -22 39 -12 56 25 23 51 -17 13 -17 14 1 7 13 -4 17 -2 14 8 -7 20 -33 22
-48 3z"/>
<path d="M857 284 c-9 -15 7 -77 21 -82 8 -2 16 6 19 19 l6 23 8 -22 c12 -33
27 -27 38 15 12 41 -2 70 -14 32 l-8 -24 -8 23 c-10 25 -29 21 -29 -6 -1 -13
-4 -11 -14 7 -7 13 -16 20 -19 15z"/>
<path d="M976 278 c-4 -9 -6 -31 -4 -49 2 -25 5 -29 14 -18 5 8 7 30 4 49 -5
26 -8 31 -14 18z"/>
<path d="M1004 278 c-3 -4 -1 -8 5 -8 5 0 11 -15 13 -32 4 -40 21 -44 23 -5 1
15 5 30 8 33 12 12 25 -7 21 -31 -6 -32 12 -41 27 -13 l12 22 8 -23 c13 -32
28 -17 25 24 -4 46 -11 52 -27 24 l-12 -23 -10 24 c-5 15 -11 20 -14 12 -3 -6
-10 -9 -16 -5 -17 11 -57 11 -63 1z"/>
<path d="M1190 274 c-12 -14 -11 -18 10 -35 l25 -18 -25 6 c-22 6 -24 5 -11
-10 16 -20 32 -22 48 -6 14 14 6 39 -13 39 -8 0 -14 4 -14 10 0 5 7 7 16 3 12
-4 15 -2 12 8 -7 20 -33 22 -48 3z"/>
<path d="M1258 279 c-7 -5 -7 -8 1 -10 7 -3 13 -19 13 -37 1 -34 22 -40 24 -6
1 10 4 29 8 41 6 18 3 22 -14 20 -11 -1 -26 -4 -32 -8z"/>
<path d="M1326 280 c-7 -15 0 -70 9 -69 6 1 9 6 7 12 -2 6 5 4 16 -6 24 -22
35 -22 23 1 -7 13 -7 22 1 30 8 8 8 15 -1 26 -12 14 -50 18 -55 6z"/>
<path d="M1408 284 c-5 -4 -8 -22 -8 -40 0 -24 5 -34 20 -39 30 -10 52 13 48
49 -3 28 -21 36 -24 11 0 -5 -2 -16 -2 -22 -4 -26 -21 -12 -24 18 -2 17 -6 27
-10 23z"/>
<path d="M1498 279 c-21 -12 -24 -49 -6 -67 16 -16 30 -15 54 3 18 15 18 15
-11 13 -22 -2 -31 2 -33 16 -3 15 1 18 22 14 29 -6 37 16 10 26 -19 7 -15 8
-36 -5z"/>
<path d="M1565 281 c-3 -5 0 -11 7 -13 7 -3 12 -16 13 -31 0 -31 20 -33 20 -2
0 11 4 26 8 33 5 6 7 12 5 13 -30 7 -48 7 -53 0z"/>
<path d="M1644 282 c-15 -10 -10 -62 7 -73 34 -22 61 8 51 57 -5 30 -22 21
-22 -12 0 -34 -18 -30 -22 6 -2 18 -7 27 -14 22z"/>
<path d="M1718 255 c-2 -18 -2 -38 0 -44 6 -17 22 -13 22 7 1 16 1 16 11 0 16
-28 24 -21 26 22 2 26 -2 40 -10 41 -6 0 -19 2 -29 4 -12 2 -17 -6 -20 -30z"/>
<path d="M1794 246 c1 -34 5 -42 24 -44 12 -2 22 1 22 7 0 6 -8 11 -17 11 -17
1 -17 1 0 11 18 10 18 11 0 25 -17 12 -17 13 0 14 26 0 20 16 -7 16 -21 0 -24
-4 -22 -40z"/>
<path d="M544 245 c1 -47 20 -49 24 -2 2 26 -1 37 -11 37 -9 0 -13 -11 -13
-35z"/>
</g>
</svg>
