<?xml version="1.0" standalone="no"?>
<!DOCTYPE svg PUBLIC "-//W3C//DTD SVG 20010904//EN"
 "http://www.w3.org/TR/2001/REC-SVG-20010904/DTD/svg10.dtd">
<svg version="1.0" xmlns="http://www.w3.org/2000/svg"
 width="182.000000pt" height="182.000000pt" viewBox="0 0 182.000000 182.000000"
 preserveAspectRatio="xMidYMid meet">
<metadata>
Created by potrace 1.14, written by Peter Selinger 2001-2017
</metadata>
<g transform="translate(0.000000,182.000000) scale(0.100000,-0.100000)"
fill="#000000" stroke="none">
<path d="M786 1584 c-74 -14 -200 -69 -228 -100 -128 -138 -177 -218 -205
-339 -6 -28 -5 -185 1 -215 12 -55 50 -150 70 -174 18 -22 26 -24 56 -18 32 7
36 12 46 61 7 29 11 82 9 118 -3 57 -7 70 -32 95 -20 19 -41 30 -64 31 -35 2
-35 2 -32 42 14 149 92 272 219 347 187 110 357 108 546 -5 38 -22 86 -62 106
-87 26 -31 45 -46 65 -47 48 -4 33 27 -67 139 -116 132 -299 188 -490 152z"/>
<path d="M606 1181 c-16 -17 -18 -44 -18 -222 -1 -198 0 -203 22 -221 20 -16
47 -18 315 -18 266 0 295 2 315 18 16 13 22 29 22 57 0 22 2 43 4 47 3 4 38
-13 79 -38 85 -50 120 -56 131 -21 4 12 8 95 9 185 1 144 -1 165 -17 182 -21
23 -29 21 -120 -32 -36 -21 -71 -38 -76 -38 -5 0 -10 18 -10 41 -1 81 5 79
-337 79 -285 0 -303 -1 -319 -19z m398 -93 c48 -31 69 -73 69 -130 0 -157
-215 -203 -284 -62 -33 69 -7 156 60 198 39 23 114 21 155 -6z"/>
<path d="M877 1023 c-2 -5 -3 -35 -2 -68 0 -45 4 -60 15 -62 20 -4 110 54 110
70 0 8 -22 26 -49 40 -50 28 -67 32 -74 20z"/>
<path d="M81 563 c-26 -21 -34 -58 -20 -85 6 -10 33 -29 61 -41 49 -22 50 -23
33 -41 -17 -17 -20 -17 -30 -2 -13 17 -60 22 -69 7 -9 -15 27 -51 60 -60 58
-16 119 27 109 78 -6 33 -14 41 -60 61 -24 10 -46 23 -50 29 -10 17 26 26 39
10 14 -18 66 -13 66 6 0 47 -96 73 -139 38z"/>
<path d="M255 572 c-3 -3 -5 -13 -5 -23 0 -13 9 -19 32 -21 l32 -3 -2 -92 -1
-93 29 0 30 0 0 95 0 95 30 0 c25 0 30 4 30 24 0 24 -1 25 -85 24 -46 0 -86
-3 -90 -6z"/>
<path d="M462 460 l-1 -120 29 0 c27 0 29 2 32 48 l3 47 25 -47 c21 -43 28
-48 57 -48 l33 0 -25 49 c-24 48 -24 50 -5 56 24 8 36 64 20 94 -14 28 -41 37
-111 40 l-56 2 -1 -121z m102 64 c21 -8 21 -40 0 -48 -30 -12 -44 -6 -44 17 0
35 12 43 44 31z"/>
<path d="M680 459 l0 -119 70 0 c68 0 70 1 70 25 0 23 -4 25 -43 25 -35 0 -44
4 -44 18 0 22 15 32 50 32 22 0 27 4 27 25 0 23 -3 25 -30 20 -22 -4 -32 0
-39 14 -14 25 -5 31 41 31 33 0 38 3 38 24 0 23 -3 24 -70 24 l-70 0 0 -119z"/>
<path d="M927 573 c-8 -13 -77 -215 -77 -225 0 -4 13 -8 29 -8 20 0 30 6 34
20 4 16 14 20 47 20 33 0 43 -4 47 -20 4 -14 14 -20 34 -20 17 0 29 5 28 13 0
6 -17 59 -38 117 -36 101 -39 105 -68 108 -17 2 -34 -1 -36 -5z m47 -105 c9
-35 8 -38 -14 -38 -11 0 -20 3 -20 8 0 19 13 52 20 52 4 0 10 -10 14 -22z"/>
<path d="M1108 573 c-3 -4 -4 -57 -4 -118 l1 -110 28 -3 c29 -4 31 3 28 87 -1
44 5 37 27 -30 14 -46 21 -54 44 -57 24 -3 28 2 44 52 10 31 21 56 24 56 4 0
7 -24 6 -52 -1 -51 0 -53 27 -56 15 -2 27 0 28 5 1 13 1 196 0 216 -1 12 -10
17 -34 17 -32 0 -33 -2 -63 -81 l-30 -82 -30 79 c-28 71 -34 78 -62 81 -16 2
-32 0 -34 -4z"/>
<path d="M1409 538 c0 -24 -1 -78 -2 -120 l-2 -78 73 0 c70 0 72 1 72 25 0 23
-4 25 -45 25 -41 0 -45 2 -45 24 0 17 6 23 23 23 54 1 58 3 55 26 -2 12 -10
23 -18 23 -8 1 -25 2 -37 3 -16 1 -23 7 -23 21 0 17 7 20 46 20 41 0 45 2 42
23 -3 20 -9 22 -70 25 l-68 3 -1 -43z"/>
<path d="M1589 559 c0 -10 0 -48 0 -84 0 -145 -2 -137 29 -133 23 3 27 8 28
36 2 57 5 58 30 10 22 -43 28 -48 58 -48 l35 0 -26 45 -25 45 21 18 c20 17 26
36 23 77 -3 32 -51 54 -115 54 -49 -1 -57 -4 -58 -20z m111 -44 c10 -12 10
-18 0 -30 -15 -18 -47 -20 -53 -2 -13 39 27 64 53 32z"/>
<path d="M195 275 c3 -11 7 -25 9 -32 7 -37 21 -23 17 18 -1 9 5 16 14 16 10
0 15 -10 15 -28 0 -15 5 -31 10 -34 6 -3 10 2 10 12 0 15 2 16 10 3 12 -19 17
-12 22 25 3 30 3 30 -55 35 -55 5 -58 4 -52 -15z"/>
<path d="M672 289 c-33 -12 -28 -63 7 -67 21 -3 40 11 41 31 0 4 -9 7 -21 7
-15 0 -19 -5 -15 -16 3 -8 2 -12 -4 -9 -19 12 -10 34 17 37 21 2 24 5 12 14
-9 8 -22 9 -37 3z"/>
<path d="M729 279 c-8 -15 -6 -21 6 -26 13 -5 14 -7 3 -14 -11 -7 -10 -11 2
-19 10 -6 19 -5 29 5 13 12 12 17 -4 35 -16 18 -17 20 -2 14 9 -3 17 -2 17 4
0 20 -40 21 -51 1z"/>
<path d="M851 285 c-8 -14 -14 -16 -17 -7 -11 24 -24 12 -18 -15 9 -39 20 -49
38 -34 11 10 15 9 18 -3 5 -24 25 -5 33 32 4 20 3 32 -4 32 -6 0 -11 -10 -11
-22 -1 -20 -2 -19 -14 7 -12 28 -13 29 -25 10z"/>
<path d="M920 261 c0 -22 5 -43 10 -46 6 -4 10 10 10 34 0 22 -4 43 -10 46 -6
4 -10 -10 -10 -34z"/>
<path d="M973 293 c-23 -4 -33 -23 -12 -23 6 0 9 -11 7 -25 -2 -13 1 -24 7
-25 5 0 10 10 11 22 1 13 5 31 9 41 4 9 6 16 4 16 -2 -1 -14 -4 -26 -6z"/>
<path d="M1018 294 c-11 -10 -10 -74 1 -74 5 0 12 8 16 18 6 16 7 16 16 0 15
-28 25 -21 25 17 0 23 -5 35 -14 35 -7 0 -11 -4 -8 -9 3 -5 -1 -11 -8 -14 -10
-4 -16 2 -18 15 -2 11 -6 16 -10 12z"/>
<path d="M1128 293 c-10 -3 -18 -13 -18 -23 0 -10 8 -21 18 -23 16 -4 16 -5 0
-6 -10 0 -18 -5 -18 -10 0 -10 36 -21 44 -13 11 10 6 42 -6 42 -9 0 -8 3 2 10
19 12 2 28 -22 23z"/>
<path d="M1380 282 c-8 -12 -13 -14 -16 -4 -10 21 -24 13 -24 -14 0 -14 -4
-23 -10 -19 -5 3 -10 15 -10 26 0 10 -5 19 -11 19 -6 0 -9 -14 -7 -32 4 -42
43 -53 56 -17 l9 23 6 -23 c4 -18 11 -22 34 -19 15 2 27 8 25 13 -2 6 -12 9
-22 7 -13 -2 -20 2 -20 14 0 12 6 15 25 11 31 -5 29 13 -3 24 -16 6 -24 4 -32
-9z"/>
<path d="M1459 289 c-10 -7 -11 -11 -2 -17 6 -4 11 -14 10 -22 -1 -8 3 -15 8
-15 6 0 9 8 9 18 -1 9 3 17 7 17 14 0 10 17 -4 23 -8 3 -20 1 -28 -4z"/>
<path d="M1518 294 c-12 -11 -9 -59 4 -72 19 -19 48 4 48 38 0 17 -4 30 -10
30 -5 0 -10 -12 -10 -27 0 -32 -17 -20 -22 15 -1 13 -6 20 -10 16z"/>
<path d="M1663 293 c-13 -5 -18 -64 -7 -75 3 -3 14 -4 25 -1 18 5 19 6 2 19
-11 8 -13 13 -5 14 13 0 17 36 5 43 -5 2 -14 2 -20 0z"/>
<path d="M125 281 c-3 -5 2 -17 11 -25 14 -15 14 -16 -1 -16 -9 0 -13 -4 -10
-10 8 -14 42 -13 51 2 4 6 -1 17 -11 25 -17 12 -18 13 -1 13 9 0 14 5 11 10
-8 13 -42 13 -50 1z"/>
<path d="M319 280 c-5 -43 -2 -54 19 -61 23 -9 31 4 11 17 -8 4 -7 9 2 15 12
8 12 10 0 18 -11 7 -10 10 5 14 13 3 11 5 -8 6 -16 0 -28 -3 -29 -9z"/>
<path d="M381 259 c-6 -18 -11 -33 -11 -34 0 -1 18 -1 40 0 24 1 40 -2 40 -9
0 -6 7 -3 14 7 11 14 15 15 19 5 4 -10 8 -10 16 2 9 13 11 12 11 -3 0 -10 5
-15 10 -12 17 10 12 75 -5 75 -8 0 -15 -7 -15 -15 0 -20 -10 -19 -25 2 -15 21
-35 9 -28 -17 3 -11 1 -20 -5 -20 -5 0 -13 11 -16 25 -9 35 -32 31 -45 -6z"/>
<path d="M540 255 c0 -19 5 -35 10 -35 6 0 10 16 10 35 0 19 -4 35 -10 35 -5
0 -10 -16 -10 -35z"/>
<path d="M570 248 c1 -41 2 -42 16 -23 12 16 16 17 23 6 13 -21 31 -4 31 30 0
30 -20 42 -20 12 -1 -17 -1 -17 -14 0 -23 29 -36 20 -36 -25z"/>
<path d="M1170 280 c0 -5 5 -10 11 -10 7 0 9 -10 7 -25 -4 -18 -1 -25 10 -25
9 0 13 7 9 20 -3 10 1 24 9 31 14 12 16 9 18 -25 1 -11 7 -21 15 -24 9 -3 11
0 6 9 -5 8 0 7 11 -3 19 -17 20 -16 21 22 l2 40 -60 0 c-33 0 -59 -4 -59 -10z"/>
<path d="M1583 255 c-1 -34 11 -47 20 -22 4 10 6 10 6 0 2 -30 26 -10 28 22 3
32 1 35 -25 35 -25 0 -28 -4 -29 -35z"/>
</g>
</svg>
